<?xml version="1.0" encoding="UTF-8"?>
<svg version="1.1" xmlns="http://www.w3.org/2000/svg" width="1659" height="887">
<path d="M0 0 C1.13328407 -0.00445784 2.26656814 -0.00891569 3.43419415 -0.01350862 C4.67959766 -0.01332426 5.92500117 -0.01313989 7.20814419 -0.01294994 C8.54431799 -0.01624992 9.8804908 -0.01997577 11.21666235 -0.02409142 C14.89190121 -0.03410451 18.56712373 -0.03782711 22.2423743 -0.04048073 C26.20506698 -0.04438587 30.16774674 -0.05396412 34.13043118 -0.0626936 C43.70249773 -0.08245277 53.27456533 -0.09252383 62.84664717 -0.10142139 C67.35550786 -0.10580546 71.86436736 -0.11117198 76.37322712 -0.11641026 C91.36404743 -0.1334225 106.35486701 -0.14791613 121.3456955 -0.155159 C125.23559031 -0.15706886 129.12548512 -0.1589892 133.01537991 -0.16094494 C134.46558348 -0.16167055 134.46558348 -0.16167055 135.94508409 -0.16241082 C151.60259552 -0.17070906 167.2600305 -0.19604252 182.91750855 -0.22852562 C198.99663628 -0.26161118 215.07572519 -0.27960914 231.15488714 -0.28280324 C240.18112137 -0.28496702 249.20724414 -0.2936963 258.23344517 -0.31926441 C265.92153704 -0.34099192 273.60949037 -0.34901178 281.29760946 -0.33929763 C285.21799918 -0.33475876 289.13810319 -0.33661479 293.05845356 -0.35605907 C296.65317024 -0.37373371 300.2473937 -0.37265877 303.84211593 -0.35716178 C305.74656012 -0.35367653 307.65100974 -0.36977998 309.55538136 -0.38676625 C321.90891509 -0.2947117 331.18733542 3.2638021 340.14648342 11.72406483 C349.55704322 21.69785015 349.61662829 34.15032217 349.56054592 47.06781483 C349.5584235 48.91742565 349.5584235 48.91742565 349.5562582 50.80440235 C349.55067908 54.72686703 349.53813035 58.64927377 349.52538967 62.57172108 C349.51980665 65.23773587 349.51580954 67.90375011 349.5117178 70.56976795 C349.50071648 77.09127196 349.48399912 83.61274238 349.46288967 90.13422108 C348.90907116 90.15829533 348.35525265 90.18236958 347.78465176 90.20717335 C345.21757692 90.32096038 342.65079642 90.44045961 340.08398342 90.56000233 C339.21334255 90.59774769 338.34270168 90.63549305 337.44567776 90.67438221 C295.28662685 92.67452232 257.18946914 110.36589079 227.46288967 140.13422108 C224.28686147 143.67710064 221.34377843 147.34899317 218.46288967 151.13422108 C217.79773342 151.98371326 217.13257717 152.83320545 216.44726467 153.70843983 C204.42254932 169.5441378 197.50477468 187.27256561 190.41528225 205.66711903 C188.65252544 210.23340926 186.87673029 214.79464091 185.10351467 219.35687733 C182.28635351 226.60931351 179.47441047 233.86374552 176.66729641 241.12007618 C171.42166918 254.67857804 166.13995033 268.22269573 160.83788967 281.75922108 C160.2986285 283.13606068 160.2986285 283.13606068 159.74847317 284.54071522 C159.04656831 286.33261658 158.34453344 288.12446701 157.64236355 289.91626453 C156.96166289 291.65395017 156.28153649 293.39186088 155.60201931 295.13000965 C153.72948788 299.91697527 151.84243253 304.69774857 149.94042873 309.47308826 C149.31462414 311.05203373 149.31462414 311.05203373 148.67617702 312.66287708 C147.86714003 314.70376647 147.05412603 316.74308493 146.23666286 318.7806139 C145.69243176 320.15713627 145.69243176 320.15713627 145.13720608 321.56146717 C144.81346004 322.37328449 144.48971401 323.18510181 144.15615749 324.02151966 C143.30699682 326.2387074 143.30699682 326.2387074 143.46288967 329.13422108 C151.51184624 330.43990548 159.56107331 331.74390402 167.61065388 333.04573536 C171.34815586 333.65024356 175.08556101 334.25533786 178.82275295 334.86176014 C182.42756443 335.44667953 186.03261958 336.03007434 189.63785076 336.61240101 C191.01508453 336.83513273 192.39222873 337.05841897 193.76928234 337.28226185 C195.69409636 337.59504827 197.61925654 337.90570226 199.54443264 338.21625233 C200.64141476 338.39390125 201.73839687 338.57155018 202.86862087 338.75458241 C205.35572699 339.18248617 205.35572699 339.18248617 207.46288967 339.13422108 C207.85331448 338.10280994 208.24373928 337.07139881 208.64599514 336.0087328 C217.14108001 313.58057011 225.74490905 291.19853171 234.51245022 268.87543201 C238.56291193 258.55957367 242.59091188 248.23567744 246.58007717 237.89593983 C247.00530163 236.79477329 247.43052608 235.69360676 247.86863613 234.55907154 C250.36036025 228.10612289 250.36036025 228.10612289 252.84463406 221.65030384 C256.52273935 212.075411 260.20582149 202.50808161 264.27538967 193.09125233 C264.54348949 192.46453632 264.81158932 191.83782032 265.08781338 191.19211292 C272.05231617 175.38396329 284.85282029 164.77123506 300.46288967 158.13422108 C314.031372 153.09571561 326.95189424 153.18654755 340.97460842 155.66156483 C341.79618435 155.80267689 342.61776028 155.94378895 343.46423244 156.08917713 C345.46450778 156.43334964 347.46380689 156.78318808 349.46288967 157.13422108 C349.50855124 186.26463565 349.5439278 215.39504672 349.56502033 244.52548995 C349.56752163 247.96749544 349.57011029 251.40950085 349.57275295 254.85150623 C349.57353988 255.87933367 349.57353988 255.87933367 349.57434271 256.9279253 C349.58303654 268.01127358 349.59880088 279.09460102 349.61719526 290.17793696 C349.63592277 301.55720979 349.6468628 312.93646722 349.65106666 324.31575644 C349.6536723 330.70447781 349.65978987 337.09315201 349.67434978 343.48185825 C349.68794965 349.49819379 349.69210742 355.51446282 349.68910503 361.53081226 C349.68965412 363.73581905 349.69361717 365.94082811 349.70130062 368.14582157 C349.71129945 371.16395741 349.70884053 374.18184446 349.7033987 377.19998646 C349.71213723 378.498671 349.71213723 378.498671 349.72105229 379.82359159 C349.65935636 392.54502966 346.57719518 402.58648452 337.88085842 412.01703358 C330.69633034 418.30784815 322.24965706 421.25116541 312.81834888 421.26844215 C311.68655716 421.2729 310.55476544 421.27735784 309.388677 421.28195077 C308.15007728 421.28176641 306.91147755 421.28158205 305.63534451 421.2813921 C304.31576264 421.28506879 302.99618078 421.28874547 301.63661158 421.29253358 C297.97503363 421.30253422 294.31347208 421.30626724 290.65188241 421.30892289 C286.70215902 421.31283165 282.75244855 421.32240954 278.80273342 421.33113575 C269.26519683 421.35088321 259.72765921 421.36096384 250.19010729 421.36986354 C245.69668982 421.37424895 241.20327353 421.37961507 236.70985699 421.38485241 C221.76960844 421.40186239 206.82936063 421.41635635 191.88910389 421.42360115 C188.01347128 421.42551098 184.13783867 421.42743133 180.26220608 421.42938709 C179.29895981 421.42987083 178.33571355 421.43035457 177.34327801 421.43085297 C161.74079551 421.43915256 146.1383897 421.4644893 130.53594069 421.49696777 C114.51102189 421.53005328 98.48614205 421.54805123 82.46118891 421.55124539 C73.46626855 421.55340902 64.47146003 421.56213623 55.47657299 421.58770657 C47.81595358 421.60943389 40.15547321 421.61745397 32.49482648 421.60773978 C28.58860628 421.60320106 24.68267283 421.60505617 20.77649212 421.62450123 C17.19476771 421.64217662 13.61353832 421.64110034 10.03180833 421.62560394 C8.13437068 421.62211894 6.23692758 421.63822147 4.33956277 421.65520841 C-6.59833076 421.57341151 -16.50672753 418.98758677 -24.53320408 411.19672108 C-33.27030312 401.96264943 -35.72716043 393.25294984 -35.59961033 380.82172108 C-35.59509861 379.98576405 -35.59058689 379.14980701 -35.58593845 378.28851795 C-35.57421581 376.23705459 -35.55628236 374.18562835 -35.53711033 372.13422108 C-34.54251804 372.1123473 -34.54251804 372.1123473 -33.52783298 372.09003162 C4.96111328 371.14924981 40.07496759 361.86397537 70.46288967 337.13422108 C71.02749905 336.67644276 71.59210842 336.21866444 72.17382717 335.74701405 C98.51248688 314.24621405 112.77474207 287.38004813 124.58788967 256.00922108 C125.41180296 253.84873825 126.23702196 251.68875295 127.06347561 249.52924061 C128.73592823 245.1570725 130.40338296 240.7830505 132.06738186 236.40765858 C135.23523563 228.09311513 138.4787787 219.80860651 141.72738552 211.52536488 C143.37326764 207.32317448 145.00913091 203.11708423 146.64648342 198.91156483 C148.81993625 193.32964066 151.00663849 187.75335611 153.21397305 182.18474293 C164.68944133 153.19395443 174.61730752 123.70922912 184.46288967 94.13422108 C183.2640263 94.02836185 182.06516293 93.92250263 180.82997036 93.81343555 C174.32466779 93.08548462 167.98092883 91.65307241 161.58959866 90.26678944 C160.20906017 89.97069739 158.82843741 89.674998 157.44773769 89.3796587 C153.72438669 88.58206269 150.00222925 87.77902224 146.28027129 86.97495437 C142.38122399 86.13361451 138.48108869 85.29734873 134.58106899 84.46053028 C127.20699461 82.87749272 119.83390137 81.28993394 112.461155 79.70072418 C104.06283035 77.89068138 95.66341654 76.08571851 87.26391017 74.28116882 C69.99569057 70.57114669 52.72884009 66.85478865 35.46288967 63.13422108 C31.63952595 70.70308439 27.83995465 78.26285498 24.41992092 86.02484608 C24.08417553 86.78037769 23.74843014 87.53590931 23.40251064 88.31433582 C22.70631505 89.88283804 22.0116701 91.45202948 21.31860256 93.02191639 C20.26972256 95.39705397 19.21531981 97.76968219 18.1601553 100.14203358 C17.47558727 101.68616115 16.79133145 103.23042718 16.10742092 104.77484608 C15.80004498 105.46677052 15.49266903 106.15869495 15.17597866 106.8715868 C12.80487547 112.2509953 10.6502232 117.66588727 8.46288967 123.13422108 C37.83288967 129.40422108 67.20288967 135.67422108 97.46288967 142.13422108 C98.66097233 146.92655172 97.51614361 149.40155342 95.72851467 153.77093983 C95.27154453 154.92674549 95.27154453 154.92674549 94.80534267 156.10590076 C93.7844966 158.68192797 92.74847692 161.25158851 91.71288967 163.82172108 C90.98644071 165.64844639 90.2612886 167.47568789 89.53735256 169.30341053 C88.38769409 172.20543786 87.23715266 175.1070852 86.08265591 178.00719166 C82.01958969 188.2168855 78.05896937 198.46544768 74.1011343 208.71628284 C72.10532533 213.87796447 70.0975368 219.03498653 68.09179592 224.19281483 C65.45781426 230.96645905 62.84285793 237.74659088 60.26362514 244.54127979 C58.94197127 248.01603788 57.60694569 251.48556273 56.26931667 254.95419788 C55.6615406 256.53984008 55.05975114 258.12779372 54.46481228 259.718297 C46.92617481 279.85685857 35.39353977 294.86453191 15.46288967 304.13422108 C7.35838495 307.57161555 -0.20194284 308.48323684 -8.91211033 308.57172108 C-9.7249448 308.58203358 -10.53777927 308.59234608 -11.37524509 308.60297108 C-17.01796531 308.52355052 -22.37006282 307.68293928 -27.89111423 306.60712147 C-28.62868458 306.46599178 -29.36625492 306.3248621 -30.12617588 306.17945576 C-31.93035581 305.83382584 -33.73380966 305.48440949 -35.53711033 305.13422108 C-35.60581014 270.39847074 -35.65865622 235.66273594 -35.69030632 200.92693231 C-35.69405834 196.8239907 -35.69794131 192.72104921 -35.70190525 188.6181078 C-35.70269218 187.80130245 -35.70347911 186.98449711 -35.70428989 186.14294009 C-35.71733592 172.92562831 -35.74098534 159.70835577 -35.76856872 146.49106725 C-35.79664525 132.92409253 -35.81329134 119.35713832 -35.81937581 105.79013574 C-35.82348759 97.42178713 -35.83646398 89.05354942 -35.86085973 80.68523495 C-35.87674468 74.94304839 -35.88150445 69.20091898 -35.87761446 63.45871206 C-35.87569719 60.14810118 -35.88024207 56.83772398 -35.89472675 53.52713871 C-35.90968823 49.93089432 -35.90605011 46.33512153 -35.89787388 42.73886585 C-35.9066124 41.70187443 -35.91535093 40.66488302 -35.92435426 39.59646761 C-35.85164421 27.73574487 -32.35600498 18.26482424 -24.41211033 9.44672108 C-17.87663214 3.16978928 -8.94151687 0.01632239 0 0 Z " fill="#231F20" transform="translate(272.5371103286743,238.86577892303467)"/>
<path d="M0 0 C0 13.86 0 27.72 0 42 C-5.9379427 40.68045718 -11.64896417 39.27465115 -17.4375 37.5 C-26.48840298 34.81443795 -34.7405998 32.84805531 -44.25 32.6875 C-45.26139038 32.66079224 -45.26139038 32.66079224 -46.29321289 32.63354492 C-50.92289076 32.64099458 -54.0793549 33.55474009 -58 36 C-59.83176723 38.94675598 -60.03811649 40.54260213 -59.75 44 C-59.03160072 46.87359711 -58.38353802 49.37855953 -57 52 C-55.68447917 52.7011613 -54.34702433 53.36144877 -53 54 C-51.3210662 55.06169393 -49.65269122 56.14017516 -47.9921875 57.23046875 C-42.20451808 60.94452743 -36.21742274 64.13363143 -30.125 67.3125 C-21.00719322 72.16440824 -12.76189977 77.16416676 -5 84 C-4.31292969 84.58910156 -3.62585938 85.17820312 -2.91796875 85.78515625 C5.72125367 93.7467926 11.19733103 104.00233974 12.2421875 115.71484375 C12.60268643 129.67416332 9.32234505 141.97710814 0.25 152.8125 C-10.12452423 163.63639157 -24.17256206 170.07792471 -39 172 C-39.80695313 172.10957031 -40.61390625 172.21914063 -41.4453125 172.33203125 C-51.16079289 173.47413318 -60.7042662 173.17952042 -70.375 171.8125 C-71.30602539 171.68375488 -72.23705078 171.55500977 -73.19628906 171.42236328 C-97.19865753 167.90067124 -97.19865753 167.90067124 -105 164 C-105 147.5 -105 131 -105 114 C-100.99249287 115.60300285 -97.23925735 117.34786002 -93.375 119.25 C-84.55554656 123.46163028 -75.39403855 126.35955012 -66 129 C-64.56333984 129.40412109 -64.56333984 129.40412109 -63.09765625 129.81640625 C-54.6708864 131.82144467 -44.09307784 132.96572817 -36.125 129.125 C-32.97349675 127.35378755 -32.97349675 127.35378755 -32 125 C-31.63845246 119.48639996 -31.73737804 116.62204778 -35 112 C-35 111.34 -35 110.68 -35 110 C-35.5676709 109.72752441 -36.1353418 109.45504883 -36.72021484 109.17431641 C-39.06254504 107.96778308 -41.24771169 106.61522078 -43.4765625 105.2109375 C-49.20933101 101.74690845 -55.20541092 99.20183202 -61.375 96.625 C-70.26292888 92.81190067 -78.36207299 89.00600565 -86 83 C-86.66386719 82.51402344 -87.32773437 82.02804687 -88.01171875 81.52734375 C-97.51196098 74.12910739 -103.42922074 62.8253005 -105 51 C-105.96248722 35.71126071 -103.09935389 23.24422256 -93.375 11.3125 C-71.35325982 -12.45107274 -28.02457677 -2.3353814 0 0 Z " fill="#231F20" transform="translate(770,477)"/>
<path d="M0 0 C0 58.74 0 117.48 0 178 C-12.21 178 -24.42 178 -37 178 C-37.33 174.37 -37.66 170.74 -38 167 C-39.155 168.0725 -40.31 169.145 -41.5 170.25 C-50.18820754 177.87340058 -58.6565226 179.72461349 -70.04736328 179.17480469 C-79.18613422 178.35668016 -86.43038161 174.16377324 -93 168 C-93.62648438 167.41476562 -94.25296875 166.82953125 -94.8984375 166.2265625 C-106.95942765 153.74422772 -109.53431439 136.19315174 -109.375 119.5625 C-109.38660156 118.35529297 -109.39820313 117.14808594 -109.41015625 115.90429688 C-109.34904379 96.86776534 -104.02999752 80.22630961 -91.19921875 66.00390625 C-79.59028006 54.8424213 -65.07302144 51.61311495 -49.5 51.8125 C-48.51257812 51.81314453 -47.52515625 51.81378906 -46.5078125 51.81445312 C-39.2820085 51.85899575 -39.2820085 51.85899575 -37 53 C-37.1546875 52.15324707 -37.309375 51.30649414 -37.46875 50.43408203 C-38.00578135 46.96262843 -38.28750283 43.56041642 -38.5 40.0546875 C-38.54060547 39.40355988 -38.58121094 38.75243225 -38.62304688 38.08157349 C-38.75162717 36.01288352 -38.87607458 33.94397358 -39 31.875 C-39.56584423 22.57393543 -40.17547563 13.28247786 -41 4 C-36.28667882 3.42502757 -31.57273641 2.85555575 -26.8581543 2.29101562 C-25.25673807 2.09849035 -23.6554969 1.90450285 -22.05444336 1.70898438 C-19.74377993 1.42707337 -17.43252341 1.15054936 -15.12109375 0.875 C-14.41351425 0.78750488 -13.70593475 0.70000977 -12.97691345 0.60986328 C-8.56657157 0.09059621 -4.48824767 0 0 0 Z M-67 87 C-74.42111238 99.79502134 -73.17760745 119.30874663 -69.6875 133.25 C-67.78568938 139.20469831 -65.135423 145.18511435 -60 149 C-55.69377202 150.29999335 -53.62791529 150.25336933 -49.4375 148.5625 C-42.52901444 143.99824212 -39.59933732 137.78739574 -37.59115601 129.98373413 C-36.65456351 125.25648285 -36.62868556 120.66718402 -36.70703125 115.86328125 C-36.71339851 114.35510078 -36.71339851 114.35510078 -36.71989441 112.81645203 C-36.73650354 109.64817954 -36.77412103 106.48057575 -36.8125 103.3125 C-36.82756984 101.14649365 -36.84125419 98.98047719 -36.85351562 96.81445312 C-36.8863484 91.54274588 -36.93636605 86.27142073 -37 81 C-38.5849777 80.1702397 -40.174389 79.34894461 -41.765625 78.53125 C-42.65024414 78.07298828 -43.53486328 77.61472656 -44.44628906 77.14257812 C-54.4203198 72.68000988 -61.4010863 79.41162458 -67 87 Z " fill="#231F20" transform="translate(1114,471)"/>
<path d="M0 0 C0.33 20.46 0.66 40.92 1 62 C4.96 59.525 4.96 59.525 9 57 C20.49057292 51.80615845 33.24429119 49.31466606 45.5 53.5 C53.31239682 57.2552025 58.14701125 63.42329146 61.9921875 71.01953125 C64.96939856 79.82422907 65.29999225 88.76573193 65.33552551 97.99041748 C65.34398696 100.12219935 65.36464789 102.25358658 65.38806152 104.38525391 C65.43582158 108.92344182 65.46896105 113.46167105 65.5 118 C65.54103123 123.95846922 65.589102 129.91676215 65.65625 135.875 C65.66804794 136.94920197 65.66804794 136.94920197 65.68008423 138.04510498 C65.80046762 147.89019595 66.27808538 157.59201698 67.58007812 167.35546875 C68 171 68 171 68 178 C53.81 178 39.62 178 25 178 C26 166 26 166 26.53515625 160.1875 C27.64536555 147.54646244 28.22708422 134.95605052 28.29855347 122.27001953 C28.30776607 120.68795228 28.32177427 119.10590484 28.34085083 117.52392578 C28.76102357 103.67549498 28.76102357 103.67549498 22.9375 91.5 C19.23162812 88.6309379 16.6745983 88.62301627 12 89 C8.02527904 90.53601854 4.53743047 92.64171302 1 95 C0.54896539 97.10681134 0.54896539 97.10681134 0.62768555 99.57543945 C0.62145676 100.52856522 0.61522797 101.48169098 0.60881042 102.46369934 C0.61802017 103.50306137 0.62722992 104.5424234 0.63671875 105.61328125 C0.63622025 106.6926445 0.63572174 107.77200775 0.63520813 108.88407898 C0.63755552 111.1850263 0.64732281 113.48597585 0.66381836 115.78686523 C0.68696269 119.23250674 0.68444048 122.67734985 0.67773438 126.12304688 C0.69575002 139.87246604 1.48625917 153.34108004 3 167 C3.495 172.445 3.495 172.445 4 178 C-10.85 178 -25.7 178 -41 178 C-40.51273438 174.225625 -40.02546875 170.45125 -39.5234375 166.5625 C-37.05747729 144.02882648 -37.54756872 121.31419911 -37.60888672 98.67871094 C-37.62597723 92.28502698 -37.61584984 85.89171794 -37.59852982 79.49804688 C-37.44375492 41.6447561 -37.44375492 41.6447561 -41 4 C-36.12582999 3.42593957 -31.25115812 2.8564213 -26.37597656 2.29101562 C-24.71925708 2.09823843 -23.06267877 1.90424378 -21.40625 1.70898438 C-19.01859472 1.42774613 -16.63045778 1.15096093 -14.2421875 0.875 C-13.50757294 0.78750488 -12.77295837 0.70000977 -12.01608276 0.60986328 C-7.94397675 0.14417856 -4.12534512 0 0 0 Z " fill="#231F20" transform="translate(1138,233)"/>
<path d="M0 0 C0.495 4.455 0.495 4.455 1 9 C1.639375 8.4225 2.27875 7.845 2.9375 7.25 C12.52101447 0.20905059 22.41113684 -0.81064954 34 0 C45.5351846 2.33911623 54.19748456 8.48286572 61 18 C71.71622033 36.21254347 74.4005934 59.10474665 69.171875 79.625 C65.64325176 89.78743492 60.89540186 99.54323158 53 107 C52.00226563 108.00933594 52.00226563 108.00933594 50.984375 109.0390625 C38.70513088 120.83243725 21.09188009 126.07711839 4.2734375 126.015625 C3.06953369 126.01224121 3.06953369 126.01224121 1.84130859 126.00878906 C0.92986084 126.00443848 0.92986084 126.00443848 0 126 C0.43898511 143.47209227 2.00295306 160.63437443 4 178 C-10.85 178 -25.7 178 -41 178 C-40 166 -40 166 -39.47418213 160.42297363 C-38.15161768 146.2431408 -37.70291635 132.2045304 -37.734375 117.96875 C-37.73302094 115.75126096 -37.73107434 113.53377222 -37.72857666 111.31628418 C-37.72566011 106.71131511 -37.72980937 102.10642463 -37.73925781 97.50146484 C-37.75065008 91.67299894 -37.7440717 85.84471742 -37.73211288 80.01625824 C-37.72479933 75.44991733 -37.72722514 70.88361834 -37.73236847 66.317276 C-37.7336789 64.17122881 -37.73215175 62.02517748 -37.72740936 59.87913513 C-37.70302893 45.75581286 -38.38440969 31.8300235 -39.73426056 17.77049255 C-40.02096161 14.78146272 -40.2944219 11.79140021 -40.56536865 8.80090332 C-40.64874355 7.8808979 -40.73211845 6.96089249 -40.81801987 6.01300812 C-40.87807331 5.34871544 -40.93812675 4.68442276 -41 4 C-33.43426611 2.74600257 -25.87353396 1.70212754 -18.25 0.875 C-17.08150513 0.74375732 -17.08150513 0.74375732 -15.8894043 0.60986328 C-10.56598124 0.05092354 -5.35264404 -0.07463846 0 0 Z M6 28 C1.07361832 33.19137042 -0.12862242 37.80470851 -0.11352539 44.87011719 C-0.11344986 46.05103943 -0.11337433 47.23196167 -0.11329651 48.44866943 C-0.10813522 49.71857727 -0.10297394 50.98848511 -0.09765625 52.296875 C-0.0962413 53.60078186 -0.09482635 54.90468872 -0.09336853 56.24810791 C-0.08955867 59.70703055 -0.07974151 63.16591091 -0.06866455 66.62481689 C-0.05841746 70.15742419 -0.05386385 73.69003836 -0.04882812 77.22265625 C-0.03811782 84.14845482 -0.02105984 91.07422538 0 98 C1.57985703 97.86294168 3.1591891 97.71982502 4.73828125 97.57421875 C5.61782471 97.49518311 6.49736816 97.41614746 7.40356445 97.3347168 C14.45823642 96.42527107 20.45954182 93.54263138 25 88 C33.78422287 73.752419 35.85657013 58.38418282 33.5703125 41.90234375 C31.88919215 35.18823964 28.07223797 29.47839073 22.09375 25.83984375 C15.71151776 22.93268288 11.56572144 24.27866968 6 28 Z " fill="#231F20" transform="translate(1015,285)"/>
<path d="M0 0 C1.06394485 0.00165665 2.12788971 0.00331329 3.22407532 0.00502014 C4.42739754 0.0082151 4.42739754 0.0082151 5.6550293 0.01147461 C5.66715958 1.43515099 5.66715958 1.43515099 5.67953491 2.8875885 C5.75713913 11.84765696 5.84491415 20.80757623 5.94255638 29.76744938 C5.99242652 34.3734189 6.0387572 38.97936651 6.0769043 43.58544922 C6.11387458 48.03352212 6.16026601 52.48140753 6.2130928 56.92931938 C6.23157449 58.62327206 6.24670525 60.31726484 6.25837326 62.01127815 C6.27534277 64.3905251 6.30440247 66.76934844 6.33618164 69.1484375 C6.33834183 69.84327744 6.34050201 70.53811737 6.34272766 71.25401306 C6.44466072 77.25771825 7.15125046 82.23778675 11.0925293 86.88647461 C14.77819135 89.94287729 17.85036322 90.37190805 22.6003418 90.28491211 C26.76986792 89.73003221 29.45702634 87.43612677 32.1003418 84.29272461 C35.20183772 80.11013582 36.77470423 76.86103766 36.80029297 71.56616211 C36.80667282 70.66671875 36.81305267 69.76727539 36.81962585 68.84057617 C36.82073868 67.86572266 36.8218515 66.89086914 36.82299805 65.88647461 C36.82632645 64.87037109 36.82965485 63.85426758 36.83308411 62.80737305 C36.83815515 60.64526827 36.84049238 58.48315564 36.84033203 56.32104492 C36.84248401 53.07969331 36.86054016 49.83870187 36.87963867 46.59741211 C36.9203282 31.51940864 35.83110742 16.92476551 33.6550293 2.01147461 C39.17580198 1.12725933 44.63495175 0.71275248 50.2175293 0.44897461 C51.02254883 0.40579102 51.82756836 0.36260742 52.65698242 0.31811523 C57.77409304 0.06645406 62.87505643 -0.00883196 67.99853516 0 C69.2483165 0.00165665 70.49809784 0.00331329 71.78575134 0.00502014 C73.20604393 0.0082151 73.20604393 0.0082151 74.6550293 0.01147461 C74.66311615 0.94710236 74.671203 1.8827301 74.67953491 2.84671021 C74.75819057 11.8143155 74.84618944 20.78179083 74.94255638 29.74922371 C74.99177932 34.35565526 75.03809164 38.96207155 75.0769043 43.56860352 C75.26662008 65.79541995 75.86065097 87.84991216 77.6550293 110.01147461 C77.84401817 112.45296637 78.03203021 114.89453398 78.21899414 117.33618164 C78.3443605 118.96742477 78.3443605 118.96742477 78.47225952 120.63162231 C78.56273056 121.8096492 78.56273056 121.8096492 78.6550293 123.01147461 C73.94170812 123.58644704 69.22776571 124.15591886 64.51318359 124.72045898 C62.91176737 124.91298426 61.31052619 125.10697176 59.70947266 125.30249023 C57.39880923 125.58440124 55.0875527 125.86092525 52.77612305 126.13647461 C52.06854355 126.22396973 51.36096405 126.31146484 50.63194275 126.40161133 C46.26302586 126.91600109 42.04303656 127.09166663 37.6550293 127.01147461 C37.3250293 122.72147461 36.9950293 118.43147461 36.6550293 114.01147461 C35.1906543 115.24897461 33.7262793 116.48647461 32.2175293 117.76147461 C20.76476137 126.93993401 9.83676036 127.81872705 -4.3449707 127.01147461 C-13.66653487 125.84145759 -20.00462804 119.03701577 -25.7824707 112.07397461 C-30.04383237 103.72170573 -30.77720237 95.72821058 -30.7512207 86.46459961 C-30.77142149 84.00146433 -30.79168769 81.53832958 -30.81201172 79.07519531 C-30.81709747 77.79778473 -30.82218323 76.52037415 -30.8274231 75.20425415 C-30.93656688 50.68068935 -31.86401833 26.4078953 -34.3449707 2.01147461 C-30.38955201 1.41724039 -26.48531388 0.88610487 -22.48950195 0.69506836 C-21.61874023 0.65317383 -20.74797852 0.6112793 -19.85083008 0.56811523 C-18.51761719 0.50914062 -18.51761719 0.50914062 -17.1574707 0.44897461 C-15.85326172 0.38419922 -15.85326172 0.38419922 -14.52270508 0.31811523 C-9.67856289 0.09388235 -4.84958719 -0.00984029 0 0 Z " fill="#231F20" transform="translate(914.344970703125,522.988525390625)"/>
<path d="M0 0 C12.59570206 10.92004065 20.55109107 25.11245598 22.23828125 41.890625 C23.69962893 63.63687021 20.22403063 82.00749406 6.34765625 99.23828125 C-4.59280034 111.41058314 -19.51734135 115.40725473 -35.203125 117.1640625 C-50.40967097 117.91429057 -65.72197338 112.35888463 -77.19921875 102.578125 C-90.97408413 89.20973106 -96.70912597 71.93452619 -97.13671875 52.953125 C-96.93644147 34.29092391 -91.53360092 17.48647577 -78.66796875 3.63671875 C-58.34558833 -15.765264 -22.18946657 -16.94810743 0 0 Z M-51.77734375 22.1796875 C-60.84032763 34.561008 -59.65647915 53.849208 -57.484375 68.3203125 C-55.90634917 76.11661308 -53.55154002 83.20630119 -46.76171875 87.890625 C-39.91192572 90.86317669 -33.91642122 90.0134852 -27.07421875 87.578125 C-21.24969382 83.82604731 -18.76881369 76.41304797 -16.9453125 70.03515625 C-14.04318806 55.32158828 -14.08488908 37.39225869 -21.328125 24.0234375 C-23.80794486 20.33411422 -26.76646273 17.88825301 -30.76171875 15.890625 C-39.6521802 15.14156678 -45.61837406 15.18519867 -51.77734375 22.1796875 Z " fill="#231F20" transform="translate(1278.76171875,534.109375)"/>
<path d="M0 0 C8.06425047 8.91311894 11.08381757 19.27129838 11.15771484 31.12768555 C11.16797699 32.32141281 11.17823914 33.51514008 11.18881226 34.74504089 C11.19611359 36.02929459 11.20341492 37.31354828 11.2109375 38.63671875 C11.22394596 39.99836497 11.23776675 41.36000364 11.25234985 42.72163391 C11.31324046 48.46400886 11.36716242 54.2063738 11.40136719 59.94897461 C11.52015518 78.8876262 12.59215612 97.18147684 15 116 C3.45 116 -8.1 116 -20 116 C-21.32 112.7 -22.64 109.4 -24 106 C-24.56847656 106.54269531 -25.13695312 107.08539063 -25.72265625 107.64453125 C-34.60451791 115.87396902 -42.02044606 118.31239248 -54.13671875 118.1484375 C-64.29292746 117.62192191 -74.65733322 114.34266678 -82 107 C-89.72246756 96.70337658 -90.06071991 85.40852401 -89 73 C-87.07191508 63.04784908 -81.39217103 55.28890805 -73.375 49.25 C-59.45875781 40.20967425 -42.39324673 37.14717214 -26 38 C-27.0144992 27.81758989 -27.0144992 27.81758989 -33 20 C-38.61160685 17.13184539 -43.68755547 18.0476722 -49.5 19.71875 C-59.86544653 23.21407499 -69.21094407 28.55469232 -78 35 C-78.66 35 -79.32 35 -80 35 C-80 22.79 -80 10.58 -80 -2 C-56.54254166 -10.52998485 -21.42298599 -17.1096331 0 0 Z M-48 63 C-52.7367038 69.07269718 -53.90478219 74.43602091 -53 82 C-51.20353146 84.93423195 -50.0558929 86.47205355 -47 88 C-42.98325116 88.26178404 -39.40604795 87.91912862 -35.9921875 85.6875 C-30.1204709 80.1970637 -26.65472498 73.020381 -26 65 C-25.93460065 61.66463302 -25.94067525 58.33536939 -26 55 C-33.86109587 55 -41.98315755 57.93393218 -48 63 Z " fill="#231F20" transform="translate(950,294)"/>
<path d="M0 0 C16.17 0 32.34 0 49 0 C48 13 48 13 47.48022461 19.390625 C46.35897279 33.91614131 45.80559186 48.37097591 45.69140625 62.9375 C45.6844511 63.7943338 45.67749596 64.6511676 45.67033005 65.53396606 C45.60898589 73.49326336 45.5709523 81.45262862 45.54370117 89.41210938 C45.52770056 93.82998153 45.49740674 98.24758315 45.45893669 102.66531372 C45.44745526 104.31720084 45.44135785 105.96913622 45.44125557 107.62106323 C45.43956615 127.57147256 41.68683238 146.31401505 27.9375 161.625 C16.15294563 172.73762803 0.79061566 175.58046094 -14.8671875 175.3046875 C-21.68484587 174.92100976 -28.3504761 173.48553193 -35 172 C-37.86696471 163.20322629 -40.32847419 154.30273011 -42.75 145.375 C-43.22675171 143.63114014 -43.22675171 143.63114014 -43.71313477 141.85205078 C-44.00889404 140.7536084 -44.30465332 139.65516602 -44.609375 138.5234375 C-44.87717773 137.53263184 -45.14498047 136.54182617 -45.42089844 135.52099609 C-46 133 -46 133 -46 130 C-41.63401274 130.4851097 -37.41297408 131.10584756 -33.125 132.0625 C-23.8749496 133.92948265 -14.48617086 133.85073723 -6.14453125 128.8984375 C-1.42752486 125.2878894 0.7966721 120.68889219 2 115 C2.09978262 112.18169599 2.14686239 109.38815024 2.14526367 106.56982422 C2.14862228 105.72033203 2.1519809 104.87083984 2.15544128 103.99560547 C2.16495019 101.18195128 2.1668954 98.36835677 2.16796875 95.5546875 C2.17118502 93.58570329 2.17454937 91.61671931 2.17805481 89.6477356 C2.1840485 85.51010588 2.18589483 81.37249704 2.18530273 77.23486328 C2.18520193 71.98143377 2.19876747 66.72814192 2.21607494 61.4747448 C2.22730991 57.39929618 2.22921834 53.32387941 2.22869301 49.2484169 C2.22985923 47.31511085 2.23420291 45.3818036 2.24202538 43.44851303 C2.27962053 33.18345574 2.03836653 23.11883591 0.69973278 12.93018913 C0.11843215 8.50469055 0 4.53022133 0 0 Z " fill="#231F20" transform="translate(711,237)"/>
<path d="M0 0 C0 11.88 0 23.76 0 36 C12.54 36 25.08 36 38 36 C36 47 36 47 32 61 C21.44 61 10.88 61 0 61 C0.07413069 68.2596953 0.15708565 75.5181887 0.26245117 82.77734375 C0.29562363 85.24472749 0.32367926 87.71218571 0.34643555 90.1796875 C0.38012213 93.73469666 0.43244702 97.28902798 0.48828125 100.84375 C0.49467117 101.93989624 0.5010611 103.03604248 0.50764465 104.16540527 C0.6272942 110.45475296 1.27710471 115.29654307 4 121 C7.73083277 124.30445188 12.10651581 125.14482274 17 125 C24.15384478 123.85175009 31.03686322 121.98946765 38 120 C38 131.22 38 142.44 38 154 C1.17548949 166.27483684 1.17548949 166.27483684 -17.29296875 157.96875 C-26.3990457 152.75521271 -32.44998738 144.08020921 -35.1875 134.0625 C-37.09856959 125.05976089 -37.13502056 116.16092227 -37.09765625 106.99609375 C-37.0962413 105.67706558 -37.09482635 104.35803741 -37.09336853 102.9990387 C-37.08958243 99.52210534 -37.07978636 96.04521493 -37.06866455 92.56829834 C-37.0583656 89.00842876 -37.05385288 85.44855212 -37.04882812 81.88867188 C-37.03815988 74.92576202 -37.02059557 67.9628875 -37 61 C-42.28 61 -47.56 61 -53 61 C-51.02 52.75 -49.04 44.5 -47 36 C-43.7 36 -40.4 36 -37 36 C-37.47813238 32.1457043 -37.95769178 28.29158741 -38.4375 24.4375 C-38.57220703 23.35146484 -38.70691406 22.26542969 -38.84570312 21.14648438 C-38.97783203 20.08623047 -39.10996094 19.02597656 -39.24609375 17.93359375 C-39.43727783 16.39421143 -39.43727783 16.39421143 -39.63232422 14.82373047 C-39.93885883 12.46956094 -40.28693315 10.1293328 -40.66015625 7.78515625 C-40.77230469 6.86605469 -40.88445313 5.94695312 -41 5 C-38.89660439 2.89660439 -34.57008889 3.31960429 -31.66015625 3.02734375 C-30.82286484 2.93997452 -29.98557343 2.85260529 -29.12290955 2.7625885 C-26.43651492 2.48343443 -23.74952209 2.21054114 -21.0625 1.9375 C-19.25321559 1.74973034 -17.44397021 1.56158417 -15.63476562 1.37304688 C-13.91409741 1.19497489 -12.19339534 1.01722962 -10.47265625 0.83984375 C-9.65491226 0.75548569 -8.83716827 0.67112762 -7.99464417 0.58421326 C-2.23721735 0 -2.23721735 0 0 0 Z " fill="#231F20" transform="translate(833,489)"/>
<path d="M0 0 C1.18376221 0.04632568 2.36752441 0.09265137 3.5871582 0.14038086 C12.8159615 0.54283429 21.85094773 1.42845611 31 2.6875 C31 12.9175 31 23.1475 31 33.6875 C23.5 29.8125 23.5 29.8125 21.18945312 28.60205078 C13.32579572 24.60784404 4.78853475 21.84009529 -3.9375 24.625 C-5.93610821 25.5220163 -5.93610821 25.5220163 -7 26.6875 C-7.5995076 32.23374608 -7.5995076 32.23374608 -5.4140625 37.15625 C-2.59064079 40.11673101 0.50630694 42.26217704 3.9375 44.4375 C5.28173185 45.31436593 6.62547278 46.19198486 7.96875 47.0703125 C8.64292969 47.50762695 9.31710937 47.94494141 10.01171875 48.39550781 C22.82200859 56.71967945 35.76410839 65.1436195 40 80.6875 C41.5824851 93.01502847 39.86459446 102.52398451 32.53515625 112.7265625 C24.37038515 122.15863904 9.98430385 126.83737006 -2.06445312 127.86328125 C-17.72126254 128.83575388 -32.99181214 125.97555367 -48 121.6875 C-48 109.4775 -48 97.2675 -48 84.6875 C-42.06 88.1525 -42.06 88.1525 -36 91.6875 C-26.04133576 97.10803876 -14.64300528 102.53151189 -3 100.6875 C-0.7843745 99.92400149 -0.7843745 99.92400149 1 98.6875 C2.17518683 95.24028529 2.16460802 93.24011265 1.125 89.75 C-3.96379276 82.41615161 -11.82344058 78.5963765 -19.4375 74.3125 C-32.09412307 67.16040266 -43.92852758 58.32000803 -48 43.6875 C-49.47780401 33.81568289 -49.02713067 23.81878532 -43.8203125 15.13671875 C-37.93158573 7.2134748 -29.87357941 2.17340111 -20.07373047 0.32397461 C-13.38316013 -0.57893946 -6.72720517 -0.28367447 0 0 Z " fill="#231F20" transform="translate(1437,284.3125)"/>
<path d="M0 0 C0 13.2 0 26.4 0 40 C-1.65 38.35 -3.3 36.7 -5 35 C-12.41618052 28.08798965 -21.6603727 24.9245285 -31.75 24.5 C-38.49601024 24.78518119 -43.6349417 27.05539651 -48.8125 31.3125 C-56.95864703 41.32062349 -58.12292863 52.46110898 -57 65 C-55.35860224 74.25866281 -51.86263404 82.70472323 -44.0859375 88.40234375 C-37.27219664 92.21640985 -30.65556584 92.57204142 -23.125 90.9375 C-12.98545607 88.06806054 -5.51791315 83.05096859 2.00390625 75.7578125 C4 74 4 74 6 74 C5.30609934 79.09901707 4.5859381 84.19246879 3.8203125 89.28125 C3.29767259 92.77954667 2.86475758 96.25813491 2.5546875 99.78125 C2.13973171 103.73781558 1.54954477 107.29856516 0 111 C-3.69555018 113.97161934 -7.42740124 114.9577967 -12 116 C-12.99773437 116.29777344 -13.99546875 116.59554687 -15.0234375 116.90234375 C-31.7486862 121.87409576 -51.21915137 122.69553741 -66.9453125 114.45703125 C-81.74602835 105.64516091 -90.54187913 92.53147546 -95 76 C-99.2669655 55.25957566 -97.06216015 34.27289124 -86 16 C-77.03656174 4.05947721 -64.89967753 -4.4632643 -50 -7 C-49.28972656 -7.12246094 -48.57945313 -7.24492187 -47.84765625 -7.37109375 C-31.49906393 -9.5744814 -15.1584317 -6.06337268 0 0 Z " fill="#231F20" transform="translate(1369,292)"/>
<path d="M0 0 C0.495 11.88 0.495 11.88 1 24 C1.99 22.329375 2.98 20.65875 4 18.9375 C9.48546716 10.35681944 17.04603038 3.65132321 26.86328125 0.37890625 C29.73941795 -0.13112165 32.51740245 -0.17062082 35.4375 -0.1875 C37.10619141 -0.20876953 37.10619141 -0.20876953 38.80859375 -0.23046875 C42 0 42 0 47 2 C47 16.85 47 31.7 47 47 C44.69 45.02 42.38 43.04 40 41 C33.72420675 37.3610129 27.19176042 35.86626707 20 37 C14.2570956 38.71006867 9.72299002 41.21329854 6 46 C0.88023005 55.52797866 0.80016666 64.22706273 0.8125 74.875 C0.81210724 75.58675385 0.81171448 76.29850769 0.81130981 77.03182983 C0.81971973 89.77857883 1.63800568 102.32450543 3 115 C3.495 120.445 3.495 120.445 4 126 C-10.85 126 -25.7 126 -41 126 C-40.51273438 121.875 -40.02546875 117.75 -39.5234375 113.5 C-37.9163437 98.67824774 -37.53280127 83.96418227 -37.60888672 69.06152344 C-37.62597721 65.67740348 -37.6158073 62.29399265 -37.59852982 58.90989685 C-37.51920884 40.3986036 -38.70308601 22.3649057 -41 4 C-38.77598269 3.67913009 -36.55183639 3.35915414 -34.32763672 3.03955078 C-33.08907928 2.8612674 -31.85052185 2.68298401 -30.57443237 2.4992981 C-26.09854606 1.87407952 -21.61950183 1.34445995 -17.125 0.875 C-16.34898437 0.78863281 -15.57296875 0.70226562 -14.7734375 0.61328125 C-14.00515625 0.53207031 -13.236875 0.45085937 -12.4453125 0.3671875 C-11.44781982 0.26059814 -11.44781982 0.26059814 -10.43017578 0.15185547 C-6.95985071 -0.06499627 -3.47709372 0 0 0 Z " fill="#231F20" transform="translate(810,285)"/>
<path d="M0 0 C0.81221638 0.00137026 1.62443275 0.00274052 2.46126175 0.0041523 C3.08125423 0.00591406 3.70124672 0.00767582 4.34002686 0.00949097 C4.3458931 1.20456268 4.35175934 2.3996344 4.35780334 3.63092041 C4.41555702 15.01324195 4.48858099 26.39538199 4.57574177 37.77751732 C4.62005995 43.6261489 4.65939543 49.47471694 4.6864624 55.32345581 C4.81455488 90.77604709 4.81455488 90.77604709 8.34002686 126.00949097 C-6.50997314 126.00949097 -21.35997314 126.00949097 -36.65997314 126.00949097 C-35.65997314 114.00949097 -35.65997314 114.00949097 -35.12481689 108.47824097 C-32.40419573 78.80238796 -32.49771434 48.47942792 -35.38995361 18.82199097 C-35.86356822 13.88886233 -36.25651154 8.94877333 -36.65997314 4.00949097 C-29.09423925 2.75549354 -21.53350711 1.71161851 -13.90997314 0.88449097 C-12.74147827 0.75324829 -12.74147827 0.75324829 -11.54937744 0.61935425 C-10.40529419 0.49922974 -10.40529419 0.49922974 -9.23809814 0.37667847 C-8.5719751 0.3056189 -7.90585205 0.23455933 -7.21954346 0.16134644 C-4.80314593 0.01798519 -2.42007114 -0.00529232 0 0 Z " fill="#231F20" transform="translate(1252.6599731445313,284.9905090332031)"/>
<path d="M0 0 C0.01213028 1.45981796 0.01213028 1.45981796 0.02450562 2.9491272 C0.10310856 12.2699169 0.19109782 21.59058065 0.28752708 30.91120338 C0.33678167 35.69923839 0.38309586 40.48725841 0.421875 45.27539062 C0.60776938 67.93100144 1.1620631 90.41138828 3 113 C3.495 119.435 3.495 119.435 4 126 C-10.85 126 -25.7 126 -41 126 C-40.51273438 122.6175 -40.02546875 119.235 -39.5234375 115.75 C-37.56076467 100.42393686 -37.54107803 85.15100138 -37.60888672 69.72558594 C-37.62597741 65.78964081 -37.61583177 61.854305 -37.59852982 57.91838074 C-37.53120658 39.71916972 -38.18220247 22.02573391 -41 4 C-36.28667882 3.42502757 -31.57273641 2.85555575 -26.8581543 2.29101562 C-25.25673807 2.09849035 -23.6554969 1.90450285 -22.05444336 1.70898438 C-19.74377993 1.42707337 -17.43252341 1.15054936 -15.12109375 0.875 C-14.41351425 0.78750488 -13.70593475 0.70000977 -12.97691345 0.60986328 C-8.62315796 0.0972586 -4.37970639 -0.0308764 0 0 Z " fill="#231F20" transform="translate(1166,523)"/>
<path d="M0 0 C5.36384421 3.1578373 9.36014238 7.84528475 12.125 13.375 C13.58065646 21.46198035 13.32381738 28.48708296 8.6875 35.5 C3.1996548 41.73781103 -1.94004263 44.15297957 -10.25 44.8125 C-17.71069935 44.55374742 -23.23130394 41.50617468 -28.61328125 36.44140625 C-33.26675569 31.12467798 -33.87392429 25.06697 -33.6640625 18.1796875 C-32.80107522 11.60180668 -29.40212254 6.66423662 -24.3125 2.5 C-17.19753909 -2.55842209 -8.07666519 -3.51295729 0 0 Z " fill="#231F20" transform="translate(1158.3125,466.5)"/>
<path d="M0 0 C4.88783026 3.79669731 8.5492797 8.15454176 9.71484375 14.33203125 C10.38953028 21.78520899 10.39497243 28.21894182 5.71484375 34.33203125 C1.14560446 39.43704417 -3.33935234 42.83766798 -10.28515625 43.33203125 C-17.36953135 43.58429386 -22.60994623 42.40992042 -28.33984375 38.1484375 C-33.64001781 33.19947979 -36.05034514 27.79549519 -36.53515625 20.64453125 C-36.39818744 13.94551127 -34.65935465 8.39297336 -30.03515625 3.45703125 C-21.89600254 -3.82092569 -9.7061271 -5.80725997 0 0 Z " fill="#231F20" transform="translate(1251.28515625,229.66796875)"/>
</svg>
